<svg width="100" height="100" viewBox="0 0 95 95" fill="none" xmlns="http://www.w3.org/2000/svg">
<path d="M58.6875 8.00999V4.5C58.6875 3.5775 57.9225 2.8125 57 2.8125C56.0775 2.8125 55.3125 3.5775 55.3125 4.5V7.875H40.6875V4.5C40.6875 3.5775 39.9225 2.8125 39 2.8125C38.0775 2.8125 37.3125 3.5775 37.3125 4.5V8.00999C31.2375 8.57249 28.29 12.195 27.84 17.5725C27.795 18.225 28.335 18.765 28.965 18.765H67.035C67.6875 18.765 68.2275 18.2025 68.16 17.5725C67.71 12.195 64.7625 8.57249 58.6875 8.00999Z" fill="white"/>
<path opacity="0.4" d="M68.25 24.39V28.3049C68.25 29.6774 67.035 30.735 65.685 30.51C65.055 30.42 64.4025 30.3524 63.75 30.3524C56.9325 30.3524 51.375 35.9099 51.375 42.7274C51.375 43.7624 51.78 45.2025 52.2075 46.5075C52.7025 47.97 51.6225 49.4774 50.07 49.4774H39C31.125 49.4774 27.75 44.9774 27.75 38.2274V24.3674C27.75 23.1299 28.7625 22.1174 30 22.1174H66C67.2375 22.1399 68.25 23.1525 68.25 24.39Z" fill="white"/>
<path d="M63.75 33.75C58.7775 33.75 54.75 37.7775 54.75 42.75C54.75 44.4375 55.2225 46.035 56.055 47.385C57.6075 49.995 60.465 51.75 63.75 51.75C67.035 51.75 69.8925 49.995 71.445 47.385C72.2775 46.035 72.75 44.4375 72.75 42.75C72.75 37.7775 68.7225 33.75 63.75 33.75ZM68.4075 41.7825L63.615 46.215C63.3 46.5075 62.8725 46.665 62.4675 46.665C62.04 46.665 61.6125 46.5075 61.275 46.17L59.0475 43.9425C58.395 43.29 58.395 42.21 59.0475 41.5575C59.7 40.905 60.78 40.905 61.4325 41.5575L62.5125 42.6375L66.1125 39.3075C66.7875 38.6775 67.8675 38.7225 68.4975 39.3975C69.1275 40.0725 69.0825 41.13 68.4075 41.7825Z" fill="white"/>
<path d="M40.125 33.75C39.54 33.75 38.955 33.5025 38.5275 33.0975C38.1225 32.67 37.875 32.085 37.875 31.5C37.875 30.915 38.1225 30.3301 38.5275 29.9026C39.045 29.3851 39.8325 29.1375 40.575 29.295C40.71 29.3175 40.845 29.3625 40.98 29.43C41.115 29.475 41.25 29.5426 41.385 29.6326C41.4975 29.7226 41.61 29.8126 41.7225 29.9026C42.1275 30.3301 42.375 30.915 42.375 31.5C42.375 32.085 42.1275 32.67 41.7225 33.0975C41.61 33.1875 41.4975 33.2775 41.385 33.3675C41.25 33.4575 41.115 33.5251 40.98 33.5701C40.845 33.6376 40.71 33.6826 40.575 33.7051C40.4175 33.7276 40.26 33.75 40.125 33.75Z" fill="white"/>
<path d="M48 33.7501C47.415 33.7501 46.83 33.5025 46.4025 33.0975C45.9975 32.67 45.75 32.0851 45.75 31.5001C45.75 30.9151 45.9975 30.3301 46.4025 29.9026C47.2575 29.0701 48.765 29.0701 49.5975 29.9026C50.0025 30.3301 50.25 30.9151 50.25 31.5001C50.25 32.0851 50.0025 32.67 49.5975 33.0975C49.17 33.5025 48.585 33.7501 48 33.7501Z" fill="white"/>
<path d="M40.125 41.625C39.54 41.625 38.955 41.3774 38.5275 40.9724C38.1225 40.5449 37.875 39.96 37.875 39.375C37.875 38.79 38.1225 38.205 38.5275 37.7775C38.7525 37.575 38.9775 37.4174 39.27 37.3049C40.1025 36.9449 41.0925 37.1475 41.7225 37.7775C42.1275 38.205 42.375 38.79 42.375 39.375C42.375 39.96 42.1275 40.5449 41.7225 40.9724C41.295 41.3774 40.71 41.625 40.125 41.625Z" fill="white"/>
<g filter="url(#filter0_f_2_466)">
<circle cx="40.5" cy="41.5" r="9.5" fill="white"/>
</g>
<defs>
<filter id="filter0_f_2_466" x="0" y="1" width="81" height="81" filterUnits="userSpaceOnUse" color-interpolation-filters="sRGB">
<feFlood flood-opacity="0" result="BackgroundImageFix"/>
<feBlend mode="normal" in="SourceGraphic" in2="BackgroundImageFix" result="shape"/>
<feGaussianBlur stdDeviation="15.5" result="effect1_foregroundBlur_2_466"/>
</filter>
</defs>
</svg>