<svg width="100" height="100" viewBox="0 0 95 95" fill="none" xmlns="http://www.w3.org/2000/svg" >
<path opacity="0.4" d="M70.905 30.735C70.5675 27.0225 69.5775 23.0625 62.3549 23.0625H33.6449C26.4224 23.0625 25.4549 27.0225 25.0949 30.735L23.8349 44.4375C23.6774 46.1475 24.2399 47.8575 25.4099 49.14C26.6024 50.445 28.2899 51.1875 30.0899 51.1875H34.32C37.965 51.1875 38.6625 49.095 39.1125 47.7225L39.5625 46.3725C40.08 44.82 40.215 44.4375 42.24 44.4375H53.76C55.785 44.4375 55.8525 44.6625 56.4375 46.3725L56.8875 47.7225C57.3375 49.095 58.035 51.1875 61.68 51.1875H65.91C67.6875 51.1875 69.3975 50.445 70.59 49.14C71.76 47.8575 72.3225 46.1475 72.165 44.4375L70.905 30.735Z" fill="#3083FF"/>
<path d="M68.25 16.3126H66C65.9775 16.3126 65.9775 16.3126 65.955 16.3126L65.1 12.2401C64.29 8.30255 62.6025 4.68005 55.8975 4.68005H49.6875H46.3125H40.1025C33.3975 4.68005 31.71 8.30255 30.9 12.2401L30.045 16.3126C30.0225 16.3126 30.0225 16.3126 30 16.3126H27.75C26.8275 16.3126 26.0625 17.0776 26.0625 18.0001C26.0625 18.9226 26.8275 19.6876 27.75 19.6876H29.3475L28.4025 24.1876C29.6175 23.4901 31.305 23.0626 33.645 23.0626H62.355C64.695 23.0626 66.3825 23.4901 67.5975 24.1876L66.6525 19.6876H68.25C69.1725 19.6876 69.9375 18.9226 69.9375 18.0001C69.9375 17.0776 69.1725 16.3126 68.25 16.3126Z" fill="#3083FF"/>
<path d="M41.25 35.4375H34.5C33.5775 35.4375 32.8125 34.6725 32.8125 33.75C32.8125 32.8275 33.5775 32.0625 34.5 32.0625H41.25C42.1725 32.0625 42.9375 32.8275 42.9375 33.75C42.9375 34.6725 42.1725 35.4375 41.25 35.4375Z" fill="#3083FF"/>
<path d="M61.5 35.4375H54.75C53.8275 35.4375 53.0625 34.6725 53.0625 33.75C53.0625 32.8275 53.8275 32.0625 54.75 32.0625H61.5C62.4225 32.0625 63.1875 32.8275 63.1875 33.75C63.1875 34.6725 62.4225 35.4375 61.5 35.4375Z" fill="#3083FF"/>
<g filter="url(#filter0_f_2_478)">
<circle cx="40.5" cy="41.5" r="9.5" fill="#3083FF"/>
</g>
<defs>
<filter id="filter0_f_2_478" x="0" y="1" width="81" height="81" filterUnits="userSpaceOnUse" color-interpolation-filters="sRGB">
<feFlood flood-opacity="0" result="BackgroundImageFix"/>
<feBlend mode="normal" in="SourceGraphic" in2="BackgroundImageFix" result="shape"/>
<feGaussianBlur stdDeviation="15.5" result="effect1_foregroundBlur_2_478"/>
</filter>
</defs>
</svg>
