<svg width="35" height="35" viewBox="0 0 24 24" fill="none" xmlns="http://www.w3.org/2000/svg">
<path opacity="0.4" d="M23.53 12.05C23.24 11.76 22.76 11.76 22.47 12.05L22.01 12.51V12C22.01 6.48 17.52 1.98999 12 1.98999C8.95 1.98999 6.1 3.35999 4.19 5.73999C3.93 6.05999 3.98 6.53998 4.31 6.78998C4.63 7.04998 5.11 6.99998 5.36 6.66998C6.99 4.63998 9.41 3.47998 12 3.47998C16.69 3.47998 20.51 7.29999 20.51 11.99V12.49L20.05 12.03C19.76 11.74 19.28 11.74 18.99 12.03C18.7 12.32 18.7 12.8 18.99 13.09L20.73 14.83C20.8 14.9 20.88 14.95 20.97 14.99C21.06 15.03 21.16 15.05 21.26 15.05C21.36 15.05 21.45 15.03 21.55 14.99C21.64 14.95 21.72 14.9 21.79 14.83L23.53 13.09C23.82 12.82 23.82 12.34 23.53 12.05Z" fill="#3083FF"/>
<path opacity="0.4" d="M19.69 17.2C19.37 16.94 18.8899 16.9899 18.6399 17.3199C17.0099 19.3499 14.5899 20.51 11.9999 20.51C7.30995 20.51 3.48995 16.6899 3.48995 11.9999V11.4999L3.94994 11.96C4.09994 12.11 4.28995 12.1799 4.47995 12.1799C4.66995 12.1799 4.85995 12.11 5.00995 11.96C5.29995 11.67 5.29995 11.19 5.00995 10.9L3.26994 9.15991C3.19994 9.08991 3.11995 9.03994 3.02995 8.99994C2.84995 8.91994 2.63995 8.91994 2.45995 8.99994C2.36995 9.03994 2.28995 9.08991 2.21995 9.15991L0.479951 10.9C0.189951 11.19 0.189951 11.67 0.479951 11.96C0.769951 12.25 1.24995 12.25 1.53995 11.96L1.99995 11.4999V11.9999C1.99995 17.5199 6.48995 22.01 12.0099 22.01C15.0599 22.01 17.9099 20.64 19.8199 18.26C20.0699 17.94 20.02 17.46 19.69 17.2Z" fill="#3083FF"/>
<path d="M7.02871 15.5V15.0091C7.02871 14.6491 7.13078 14.2924 7.33493 13.939C7.53908 13.579 7.7847 13.2583 8.07179 12.9769C8.36525 12.6889 8.65553 12.4173 8.94261 12.162C9.2297 11.9002 9.47532 11.6351 9.67947 11.3668C9.88362 11.0984 9.98569 10.8497 9.98569 10.6206C9.98569 10.3654 9.90913 10.1625 9.75602 10.0119C9.60291 9.85484 9.39238 9.7763 9.12443 9.7763C8.80958 9.7763 8.56518 9.89249 8.39121 10.1249C8.2241 10.3481 7.95858 10.5157 7.69152 10.4356L7.44734 10.3622C7.19551 10.2866 7.04052 10.0256 7.14857 9.78592C7.16788 9.7431 7.18853 9.70062 7.21053 9.65849C7.30622 9.47522 7.43382 9.29196 7.59331 9.1087C7.75918 8.92543 7.97928 8.77817 8.25361 8.6669C8.52793 8.55563 8.83735 8.5 9.18185 8.5C9.83258 8.5 10.3589 8.68981 10.7608 9.06943C11.1627 9.4425 11.3637 9.93993 11.3637 10.5617C11.3637 10.9021 11.2776 11.2326 11.1053 11.5533C10.9331 11.874 10.7194 12.1554 10.4642 12.3976C10.209 12.6332 9.9506 12.859 9.68904 13.075C9.43385 13.2845 9.20418 13.4972 9.00003 13.7132C8.79588 13.9226 8.67148 14.1157 8.62682 14.2924H10.9403C11.2164 14.2924 11.4403 14.5163 11.4403 14.7924V15C11.4403 15.2761 11.2164 15.5 10.9403 15.5H7.02871Z" fill="#3083FF"/>
<path d="M12.3994 13.8997C12.1233 13.8997 11.8994 13.6759 11.8994 13.3997V12.9081L14.6459 8.62763H16.2153V12.7216H16.5C16.7761 12.7216 17 12.9455 17 13.2216V13.3997C17 13.6759 16.7761 13.8997 16.5 13.8997H16.2153V15C16.2153 15.2761 15.9914 15.5 15.7153 15.5H15.3851C15.109 15.5 14.8851 15.2761 14.8851 15V13.8997H12.3994ZM13.287 12.7216H14.8851V10.169L13.287 12.7216Z" fill="#3083FF"/>
</svg>
