<svg width="35" height="35" viewBox="0 0 24 24" fill="none" xmlns="http://www.w3.org/2000/svg">
<path opacity="0.4" d="M12 2C9.38 2 7.25 4.13 7.25 6.75C7.25 9.32 9.26 11.4 11.88 11.49C11.96 11.48 12.04 11.48 12.1 11.49C12.12 11.49 12.13 11.49 12.15 11.49C12.16 11.49 12.16 11.49 12.17 11.49C14.73 11.4 16.74 9.32 16.75 6.75C16.75 4.13 14.62 2 12 2Z" fill="#3083FF"/>
<path opacity="0.4" d="M20.1692 18.9842C20.1255 18.503 19.9972 17.9896 19.0609 17.9896H15.3392C14.403 17.9896 14.2776 18.503 14.2309 18.9842L14.0676 20.7605C14.0472 20.9821 14.1201 21.2038 14.2717 21.37C14.4263 21.5392 14.6451 21.6355 14.8784 21.6355H15.4267C15.8992 21.6355 15.9897 21.3642 16.048 21.1863L16.1063 21.0113C16.1734 20.81 16.1909 20.7605 16.4534 20.7605H17.9467C18.2092 20.7605 18.218 20.7896 18.2938 21.0113L18.3522 21.1863C18.4105 21.3642 18.5009 21.6355 18.9734 21.6355H19.5217C19.7522 21.6355 19.9738 21.5392 20.1284 21.37C20.2801 21.2038 20.353 20.9821 20.3326 20.7605L20.1692 18.9842Z" fill="#3083FF"/>
<path d="M19.825 17.1146H19.5333C19.5304 17.1146 19.5304 17.1146 19.5275 17.1146L19.4166 16.5867C19.3116 16.0763 19.0929 15.6067 18.2237 15.6067H17.4187H16.9812H16.1762C15.307 15.6067 15.0883 16.0763 14.9833 16.5867L14.8725 17.1146C14.8695 17.1146 14.8695 17.1146 14.8666 17.1146H14.575C14.4554 17.1146 14.3562 17.2138 14.3562 17.3334C14.3562 17.4529 14.4554 17.5521 14.575 17.5521H14.782L14.6595 18.1354C14.817 18.045 15.0358 17.9896 15.3391 17.9896H19.0608C19.3641 17.9896 19.5829 18.045 19.7404 18.1354L19.6179 17.5521H19.825C19.9445 17.5521 20.0437 17.4529 20.0437 17.3334C20.0437 17.2138 19.9445 17.1146 19.825 17.1146Z" fill="#3083FF"/>
<path d="M16.325 19.5938H15.45C15.3304 19.5938 15.2312 19.4946 15.2312 19.375C15.2312 19.2554 15.3304 19.1562 15.45 19.1562H16.325C16.4445 19.1562 16.5437 19.2554 16.5437 19.375C16.5437 19.4946 16.4445 19.5938 16.325 19.5938Z" fill="#3083FF"/>
<path d="M18.95 19.5938H18.075C17.9554 19.5938 17.8562 19.4946 17.8562 19.375C17.8562 19.2554 17.9554 19.1562 18.075 19.1562H18.95C19.0695 19.1562 19.1687 19.2554 19.1687 19.375C19.1687 19.4946 19.0695 19.5938 18.95 19.5938Z" fill="#3083FF"/>
<path fill-rule="evenodd" clip-rule="evenodd" d="M6.92996 14.15C9.73996 12.29 14.29 12.29 17.08 14.15C17.491 14.4241 17.8414 14.73 18.1274 15.0607C17.9859 15.0216 17.8197 15 17.6238 15H16.729H16.2426H15.3478C14.3816 15 14.1384 15.5241 14.0217 16.0938L13.8985 16.683H13.892H13.5678C13.4349 16.683 13.3246 16.7937 13.3246 16.9272C13.3246 17.0606 13.4349 17.1713 13.5678 17.1713H13.798L13.6626 17.8189C13.2955 18.0266 13.2203 18.4063 13.1852 18.7697L13.0037 20.7522C12.981 20.9996 13.062 21.247 13.2306 21.4325C13.4025 21.6213 13.6456 21.7288 13.905 21.7288H14.3839C13.614 21.9096 12.807 22 12 22C10.16 22 8.31996 21.53 6.91996 20.59C5.65996 19.75 4.95996 18.61 4.95996 17.38C4.95996 16.15 5.65996 15 6.92996 14.15ZM14.4173 17.6596C14.4028 17.6596 14.3885 17.6597 14.3743 17.6599C14.3885 17.6597 14.4028 17.6596 14.4173 17.6596H18.5543C18.5688 17.6596 18.5831 17.6597 18.5973 17.6599C18.5831 17.6597 18.5688 17.6596 18.5543 17.6596H14.4173Z" fill="#3083FF"/>
</svg>
