<svg width="35" height="35" viewBox="0 0 24 24" fill="none" xmlns="http://www.w3.org/2000/svg">
<path opacity="0.8" d="M12.9 2.51997L12.87 2.58997L9.96995 9.31997H7.11995C6.43995 9.31997 5.79995 9.44997 5.19995 9.70997L6.94995 5.52997L6.98995 5.43997L7.04995 5.27997C7.07995 5.20997 7.09995 5.14997 7.12995 5.09997C8.43995 2.06997 9.91995 1.37997 12.9 2.51997Z" fill="#3083FF"/>
<path d="M18.29 9.52002C17.84 9.39002 17.37 9.32002 16.88 9.32002H9.96997L12.87 2.59002L12.9 2.52002C13.04 2.57002 13.19 2.64002 13.34 2.69002L15.55 3.62002C16.78 4.13002 17.64 4.66002 18.17 5.30002C18.26 5.42002 18.34 5.53002 18.42 5.66002C18.51 5.80002 18.58 5.94002 18.62 6.09002C18.66 6.18002 18.69 6.26002 18.71 6.35002C18.97 7.20002 18.81 8.23002 18.29 9.52002Z" fill="#3083FF"/>
<path opacity="0.4" d="M21.76 14.1999V16.1499C21.76 16.3499 21.75 16.5499 21.74 16.7399C21.55 20.2399 19.6 21.9999 15.9 21.9999H8.09999C7.84999 21.9999 7.61999 21.9799 7.38999 21.9499C4.20999 21.7399 2.50999 20.0399 2.28999 16.8599C2.25999 16.6199 2.23999 16.3899 2.23999 16.1499V14.1999C2.23999 12.1899 3.45999 10.4599 5.19999 9.70995C5.79999 9.44995 6.43999 9.31995 7.11999 9.31995H16.88C17.37 9.31995 17.84 9.38995 18.29 9.51995C20.29 10.1299 21.76 11.9899 21.76 14.1999Z" fill="#3083FF"/>
<path opacity="0.6" d="M6.94999 5.53003L5.19999 9.71003C3.45999 10.46 2.23999 12.19 2.23999 14.2V11.27C2.23999 8.43003 4.25999 6.06003 6.94999 5.53003Z" fill="#3083FF"/>
<path opacity="0.6" d="M21.76 11.27V14.2C21.76 11.99 20.29 10.13 18.29 9.51997C18.81 8.22997 18.97 7.19997 18.71 6.34997C18.69 6.25997 18.66 6.17997 18.62 6.08997C20.49 7.05997 21.76 9.02997 21.76 11.27Z" fill="#3083FF"/>
</svg>
